<svg width="28" height="28" viewBox="0 0 28 28" fill="none" xmlns="http://www.w3.org/2000/svg">
<g clip-path="url(#clip0_96_562)">
<path d="M16.1467 13.5039L23.0359 20.4164C23.689 20.1045 24.4227 20.0027 25.1361 20.1251C25.8494 20.2475 26.5073 20.588 27.0191 21.0998C27.5309 21.6116 27.8714 22.2695 27.9938 22.9828C28.1162 23.6962 28.0144 24.43 27.7025 25.0831L25.7834 23.1639C25.5644 22.945 25.2675 22.822 24.9579 22.822C24.6483 22.822 24.3514 22.945 24.1325 23.1639C23.9136 23.3828 23.7906 23.6797 23.7906 23.9893C23.7906 24.2989 23.9136 24.5958 24.1325 24.8147L26.0517 26.7281C25.3986 27.04 24.6648 27.1418 23.9515 27.0194C23.2381 26.897 22.5802 26.5564 22.0684 26.0447C21.5566 25.5329 21.2161 24.875 21.0937 24.1616C20.9713 23.4483 21.0731 22.7145 21.385 22.0614L14.4958 15.1664" fill="#838BC5"/>
<path d="M12.8333 13.5035L5.96163 6.61432C5.30851 6.92624 4.57475 7.02801 3.86139 6.90562C3.14804 6.78323 2.49017 6.44269 1.97838 5.9309C1.46659 5.41911 1.12605 4.76124 1.00366 4.04788C0.881262 3.33452 0.983035 2.60077 1.29496 1.94765L3.20829 3.86682C3.31669 3.97521 3.44537 4.06119 3.587 4.11986C3.72862 4.17852 3.88042 4.20871 4.03371 4.20871C4.187 4.20871 4.3388 4.17852 4.48042 4.11986C4.62205 4.06119 4.75073 3.97521 4.85913 3.86682C4.96752 3.75842 5.0535 3.62974 5.11217 3.48811C5.17083 3.34649 5.20103 3.19469 5.20103 3.0414C5.20103 2.88811 5.17083 2.73631 5.11217 2.59469C5.0535 2.45306 4.96752 2.32438 4.85913 2.21598L2.94579 0.302649C3.59891 -0.00927432 4.33267 -0.111047 5.04602 0.0113455C5.75938 0.133738 6.41725 0.474277 6.92904 0.986067C7.44083 1.49786 7.78137 2.15573 7.90376 2.86908C8.02616 3.58244 7.92438 4.3162 7.61246 4.96932L14.4958 11.8526" fill="#838BC5"/>
<path d="M9.96332 16.3861L24.9083 1.37667L26.8333 0L27.9358 1.1025L26.5592 3.0275L11.6142 18.0369" fill="#65C8D0"/>
<path d="M12.8528 19.2771L8.72803 15.1523L7.07811 16.8023L11.2029 20.927L12.8528 19.2771Z" fill="#F4ECCE"/>
<path d="M10.7858 20.5166L5.57667 26.8808C5.29647 27.2193 4.94888 27.4959 4.55602 27.6928C4.16316 27.8898 3.73361 28.0028 3.2947 28.0247C2.85578 28.0467 2.4171 27.9771 2.00656 27.8203C1.59601 27.6635 1.22257 27.423 0.91 27.1141C0.60109 26.8015 0.360601 26.4281 0.203829 26.0176C0.047056 25.607 -0.0225712 25.1683 -0.000625466 24.7294C0.0213203 24.2905 0.134359 23.861 0.331302 23.4681C0.528245 23.0752 0.804784 22.7276 1.14333 22.4474L7.51333 17.2383" fill="#65C8D0"/>
<path d="M7.49191 19.6885L4.19208 22.9883L5.01704 23.8132L8.31687 20.5134L7.49191 19.6885Z" fill="#FCDD7C"/>
<path d="M3.3628 23.8186L2.53784 24.6436L3.3628 25.4685L4.18776 24.6436L3.3628 23.8186Z" fill="#FCDD7C"/>
</g>
<defs>
<clipPath id="clip0_96_562">
<rect width="28" height="28" fill="white"/>
</clipPath>
</defs>
</svg>
