<svg width="28" height="28" viewBox="0 0 28 28" fill="none" xmlns="http://www.w3.org/2000/svg">
<g clip-path="url(#clip0_96_650)">
<path d="M14 24.3865C19.7366 24.3865 24.3871 19.736 24.3871 13.9994C24.3871 8.26277 19.7366 3.6123 14 3.6123C8.26338 3.6123 3.61292 8.26277 3.61292 13.9994C3.61292 19.736 8.26338 24.3865 14 24.3865Z" fill="#69D6F4"/>
<path d="M14 5.87012V7.22496L10.8251 8.41721C10.7438 7.99721 10.378 7.67657 9.93544 7.67657C9.78189 7.67657 9.64189 7.71721 9.51544 7.78496C9.51996 7.77141 9.52447 7.75786 9.52899 7.74431L9.89028 6.47979C9.92189 6.37592 9.93544 6.26754 9.93544 6.15463C9.93544 6.05528 9.92189 5.96044 9.89931 5.87012H14Z" fill="#FF826E"/>
<path d="M10.3871 1.80566V3.1605L7.98448 3.50373L7.81287 1.80566H10.3871Z" fill="#FF826E"/>
<path d="M6.63871 1.80566L6.46709 3.50373L4.06451 3.1605V1.80566H6.63871Z" fill="#FF826E"/>
<path d="M4.56128 6.47979L4.92257 7.74431C4.92708 7.75786 4.9316 7.77141 4.93612 7.78496C4.80966 7.71721 4.66966 7.67657 4.51612 7.67657C4.07353 7.67657 3.70773 7.99721 3.62644 8.41721L0.451599 7.22496V5.87012H4.55224C4.52966 5.96044 4.51612 6.05528 4.51612 6.15463C4.51612 6.26754 4.52966 6.37592 4.56128 6.47979Z" fill="#FF826E"/>
<path d="M7.81289 1.80601L7.98451 3.50408L8.12902 4.9673H6.32257L6.46709 3.50408L6.6387 1.80601L6.77418 0.451172H7.67741L7.81289 1.80601Z" fill="#AAB2BD"/>
<path d="M9.89031 6.48068L9.52902 7.74519C9.5245 7.75874 9.51998 7.77229 9.51547 7.78584C9.41611 8.11552 9.25353 8.40906 9.03676 8.65293C8.59418 9.16777 7.93934 9.4839 7.22579 9.4839C6.69289 9.4839 6.18708 9.30777 5.78063 9.00068C5.64515 8.89681 5.52321 8.7839 5.41482 8.65293C5.19805 8.40906 5.03547 8.11552 4.93611 7.78584C4.9316 7.77229 4.92708 7.75874 4.92256 7.74519L4.56127 6.48068C4.52966 6.37681 4.51611 6.26842 4.51611 6.15552C4.51611 6.05616 4.52966 5.96132 4.55224 5.871C4.60644 5.65874 4.71482 5.46906 4.86386 5.31552C5.08063 5.10326 5.37418 4.96777 5.70386 4.96777H6.32256H8.12902H8.74773C8.78386 4.96777 8.81998 4.96777 8.85611 4.97229C9.36192 5.01745 9.78192 5.38777 9.89934 5.871C9.92192 5.96132 9.93547 6.05616 9.93547 6.15552C9.93547 6.26842 9.92192 6.37681 9.89031 6.48068Z" fill="#CCD1D9"/>
<path d="M9.93545 7.67676C10.378 7.67676 10.7438 7.9974 10.8251 8.4174C10.8342 8.4716 10.8387 8.52579 10.8387 8.57998C10.8387 9.07676 10.4322 9.48321 9.93545 9.48321C9.46126 9.48321 9.07739 9.1174 9.03674 8.65224C9.25352 8.40837 9.4161 8.11482 9.51545 7.78514C9.6419 7.7174 9.7819 7.67676 9.93545 7.67676Z" fill="#969FAA"/>
<path d="M4.93614 7.78514C5.0355 8.11482 5.19808 8.40837 5.41485 8.65224C5.37872 9.07224 5.05808 9.41547 4.64711 9.46966C4.60646 9.47869 4.5613 9.48321 4.51614 9.48321C4.01937 9.48321 3.61292 9.07676 3.61292 8.57998C3.61292 8.52579 3.61743 8.4716 3.62646 8.4174C3.70775 7.9974 4.07356 7.67676 4.51614 7.67676C4.66969 7.67676 4.80969 7.7174 4.93614 7.78514Z" fill="#969FAA"/>
<path d="M24.0303 16.709H25.7419H26.6451V20.3219H22.5806L23.0322 16.709H23.9355H24.0303Z" fill="#CF9E76"/>
<path d="M19.4194 16.709H15.8065V19.4187H19.4194V16.709Z" fill="#CF9E76"/>
<path d="M20.3226 19.4189V22.1286H14.9032V19.4189H15.8064H19.4193H20.3226Z" fill="#DFB28B"/>
<path d="M26.6452 20.3223H27.5484C27.5484 22.3861 26.3968 24.1745 24.7032 25.0958C24.7032 25.0913 24.6987 25.0958 24.6987 25.0958C24.4006 24.9468 24.0394 24.8384 23.4884 24.8384C21.9077 24.8384 21.9077 25.7416 20.3271 25.7416C18.7465 25.7416 18.7465 24.8384 17.1613 24.8384C16.4658 24.8384 16.0774 25.0145 15.7252 25.2087C15.3594 24.9829 15.0387 24.6984 14.7723 24.3597C14.6639 24.2242 14.5645 24.0752 14.4742 23.9216C14.1716 23.3932 14 22.779 14 22.1287H14.9032H20.3226L21.6774 20.3223H22.5806H26.6452Z" fill="#E6E9ED"/>
<path d="M26.6452 25.7411V27.5476C25.3761 27.5476 24.649 27.1321 24.1703 26.8566C23.8587 26.6805 23.7955 26.6443 23.4884 26.6443C23.1768 26.6443 23.1135 26.6805 22.8019 26.8566C22.3232 27.1321 21.5961 27.5476 20.3271 27.5476C19.0581 27.5476 18.331 27.1321 17.8477 26.8566C17.5406 26.6805 17.4729 26.6443 17.1613 26.6443C16.8497 26.6443 16.7865 26.6805 16.4794 26.8566C15.9961 27.1321 15.269 27.5476 14 27.5476V25.7411C14.8852 25.7411 15.2735 25.4566 15.7252 25.2082C16.0774 25.014 16.4658 24.8379 17.1613 24.8379C18.7465 24.8379 18.7465 25.7411 20.3271 25.7411C21.9077 25.7411 21.9077 24.8379 23.4884 24.8379C24.0394 24.8379 24.4006 24.9463 24.6987 25.0953C24.6987 25.0953 24.7032 25.0908 24.7032 25.0953C25.2587 25.3618 25.62 25.7411 26.6452 25.7411Z" fill="#69D6F4"/>
<path d="M28 20.3221V19.8705H27.0968V16.2576H26.1936V14.4512H25.2903V16.2576H24.3871V15.3544H23.4839V16.2576H22.6335L22.1819 19.8705H21.4516L20.7742 20.7738V18.9673H19.871V16.2576H15.3549V18.9673H14.4516V21.677H13.5484V22.1286C13.5484 23.2965 14.0425 24.3727 14.8883 25.1354C14.658 25.228 14.3889 25.2899 14 25.2899V26.1931C14.9109 26.1931 15.386 25.9217 15.8056 25.6819C16.1736 25.4714 16.4925 25.2899 17.1631 25.2899C17.8338 25.2899 18.1521 25.4714 18.5207 25.6819C18.9398 25.9217 19.4153 26.1931 20.3262 26.1931C21.2367 26.1931 21.7118 25.9212 22.1309 25.6819C22.4989 25.4714 22.8169 25.2899 23.487 25.2899C24.1563 25.2899 24.4747 25.4714 24.8423 25.6819C25.261 25.9212 25.7356 26.1931 26.6452 26.1931V25.2899C26.1615 25.2899 25.8621 25.1946 25.5938 25.0623C27.095 23.9653 28 22.213 28 20.3221ZM23.431 17.1608H26.1936V19.8705H23.0923L23.431 17.1608ZM16.2581 17.1608H18.9678V18.9673H16.2581V17.1608ZM15.3549 19.8705H19.871V21.677H15.3549V19.8705ZM21.6829 24.8979C21.3143 25.1083 20.9964 25.2899 20.3262 25.2899C19.6556 25.2899 19.3372 25.1083 18.9687 24.8979C18.5491 24.6581 18.074 24.3867 17.1631 24.3867C16.5232 24.3867 16.1 24.5212 15.7581 24.6843C15.0599 24.178 14.6029 23.4256 14.4832 22.5802H20.5484L21.9032 20.7738H27.0765C26.9329 22.3548 26.0359 23.7693 24.6617 24.5867C24.36 24.4716 23.9919 24.3867 23.487 24.3867C22.577 24.3867 22.1015 24.6581 21.6829 24.8979Z" fill="black"/>
<path d="M23.487 26.1934C23.0783 26.1934 22.9343 26.2634 22.5788 26.4661C22.1137 26.7321 21.4774 27.0966 20.3262 27.0966C19.1759 27.0966 18.5383 26.7326 18.0726 26.4666C17.7168 26.2634 17.5732 26.1934 17.1631 26.1934C16.753 26.1934 16.609 26.2634 16.2531 26.4666C15.7879 26.7326 15.1503 27.0966 14 27.0966V27.9998C15.3901 27.9998 16.2111 27.531 16.7011 27.251C16.9716 27.0966 16.9716 27.0966 17.1631 27.0966C17.3546 27.0966 17.3546 27.0966 17.6246 27.251C18.1151 27.531 18.9361 27.9998 20.3262 27.9998C21.7172 27.9998 22.5373 27.5306 23.0273 27.2506C23.2969 27.0966 23.2969 27.0966 23.487 27.0966C23.6767 27.0966 23.6767 27.0966 23.9463 27.251C24.4363 27.531 25.2565 27.9998 26.6452 27.9998V27.0966C25.4963 27.0966 24.8595 26.7326 24.3939 26.4661C24.0389 26.2634 23.8957 26.1934 23.487 26.1934Z" fill="black"/>
<path d="M8.58065 6.32227H5.87097V7.22549H8.58065V6.32227Z" fill="black"/>
<path d="M5.42432 18.9677H10.3731C10.7019 20.7345 11.2023 22.2437 11.8332 23.2739L12.6032 22.8024C12.0432 21.8874 11.5934 20.5479 11.2876 18.9677H13.5484V18.0645H11.1327C10.9629 16.9377 10.8635 15.7152 10.8441 14.4516H17.1514C17.1468 14.7474 17.1446 15.0459 17.1315 15.3327L18.0338 15.3743C18.0474 15.0735 18.0501 14.7614 18.0546 14.4516H24.8387V14C24.8387 8.02381 19.9762 3.16129 14 3.16129C13.2043 3.16129 12.4103 3.248 11.6394 3.41916L11.8354 4.30071C12.5417 4.144 13.2702 4.06452 14 4.06452C15.0202 4.06452 16.1185 5.96581 16.7146 9.03226H11.2072C11.2415 8.93606 11.2637 8.8349 11.2754 8.73013L14.4516 7.53877V5.41935H10.2042C9.93323 4.886 9.38497 4.51613 8.74684 4.51613H8.53774L8.47542 3.89065L10.8387 3.55284V1.35484H8.22161L8.08613 0H6.36503L6.22955 1.35484H3.6129V3.55284L5.97619 3.89065L5.91387 4.51613H5.70477C5.06665 4.51613 4.51839 4.886 4.24742 5.41935H0V7.53877L3.17619 8.73013C3.25206 9.40619 3.82019 9.93548 4.51613 9.93548C4.94787 9.93548 5.33581 9.72684 5.58419 9.40394C6.05477 9.73813 6.6229 9.93548 7.22581 9.93548C7.82871 9.93548 8.39684 9.73768 8.86742 9.40394C9.11581 9.72684 9.50374 9.93548 9.93548 9.93548H16.8705C17.0348 11.0261 17.1337 12.2419 17.1532 13.5484H10.8509C10.8649 12.6411 10.911 11.746 11.0063 10.8884L10.1085 10.7886C10.0095 11.6792 9.96168 12.6077 9.94768 13.5484H4.08168C4.12097 12.6709 4.26729 11.807 4.53284 10.976L3.67297 10.7014C3.33335 11.7636 3.16129 12.8732 3.16129 14C3.16129 19.5883 7.51755 24.332 13.0796 24.8003L13.1555 23.9003C9.84742 23.6216 7.01264 21.6878 5.42432 18.9677ZM13.5484 6.91284L11.069 7.84226C10.8631 7.52658 10.5289 7.30619 10.141 7.24613L10.3234 6.60665C10.3501 6.51361 10.3654 6.41832 10.3754 6.32213H13.5484V6.91284ZM9.93548 2.25806V2.76974L8.38555 2.99148L8.31194 2.25806H9.93548ZM4.51613 2.76974V2.25806H6.13968L6.06652 2.99103L4.51613 2.76974ZM7.1829 0.903226H7.26826L7.62955 4.51613H6.82116L7.1829 0.903226ZM0.903226 6.32258H4.07626C4.08619 6.41832 4.1011 6.51361 4.12774 6.60665L4.31065 7.24658C3.92316 7.30619 3.58897 7.52703 3.38303 7.84271L0.903226 6.91284V6.32258ZM4.51613 9.03226C4.26684 9.03226 4.06452 8.82948 4.06452 8.58065C4.06452 8.30697 4.31561 8.08748 4.59019 8.13852C4.67826 8.3589 4.788 8.56665 4.92484 8.75452C4.85619 8.9171 4.69948 9.03226 4.51613 9.03226ZM5.35748 7.62277L4.99574 6.35826C4.97723 6.29277 4.96774 6.22458 4.96774 6.15594C4.96774 5.74994 5.29832 5.41935 5.70477 5.41935H8.74684C9.15329 5.41935 9.48387 5.74994 9.48387 6.15594C9.48387 6.22413 9.47439 6.29232 9.45542 6.35826L9.09413 7.62232C8.85703 8.45284 8.08884 9.03226 7.22581 9.03226C6.36277 9.03226 5.59458 8.45284 5.35748 7.62277ZM9.52677 8.75452C9.66361 8.56665 9.77335 8.35935 9.86142 8.13852C10.1351 8.08794 10.3871 8.30742 10.3871 8.58065C10.3871 8.82948 10.1848 9.03226 9.93548 9.03226C9.75213 9.03226 9.59542 8.9171 9.52677 8.75452ZM10.2218 18.0645H4.95736C4.44974 16.9477 4.14535 15.7283 4.08619 14.4516H9.94045C9.95987 15.7066 10.0561 16.9283 10.2218 18.0645ZM15.8457 4.2411C18.7288 4.78529 21.1761 6.57548 22.601 9.03226H17.6301C17.2611 7.0289 16.6618 5.29516 15.8457 4.2411ZM17.7777 9.93548H23.0607C23.5615 11.0474 23.8673 12.2658 23.9251 13.5484H18.0609C18.0419 12.3281 17.9462 11.0997 17.7777 9.93548Z" fill="black"/>
<path d="M25.3436 10.956L25.6236 12.0029L27.487 8.80862L26.7061 8.35339L25.905 9.72811C25.0374 7.31514 23.4405 5.20023 21.3324 3.69727L20.8085 4.43294C23.0309 6.0172 24.6414 8.33398 25.3436 10.956Z" fill="black"/>
<path d="M20.5574 3.18612C20.2566 3.00321 19.9414 2.82934 19.6208 2.66992L19.2184 3.47876C19.516 3.62689 19.8091 3.78812 20.0882 3.95792L20.5574 3.18612Z" fill="black"/>
<path d="M18.6837 2.25043C18.3762 2.12804 18.0609 2.01604 17.7466 1.91895L17.4792 2.78198C17.771 2.8723 18.0636 2.97572 18.3486 3.08953L18.6837 2.25043Z" fill="black"/>
<path d="M2.65642 17.0439L2.37642 15.9971L0.513062 19.1913L1.2939 19.6466L2.09506 18.2718C2.96261 20.6848 4.55951 22.7997 6.66764 24.3027L7.19151 23.567C4.96913 21.9827 3.35867 19.666 2.65642 17.0439Z" fill="black"/>
<path d="M7.44257 24.8148C7.74334 24.9977 8.05857 25.1716 8.37921 25.331L8.7816 24.5221C8.48399 24.374 8.19089 24.2128 7.91179 24.043L7.44257 24.8148Z" fill="black"/>
<path d="M9.31635 25.7493C9.62389 25.8716 9.93912 25.9836 10.2534 26.0807L10.5208 25.2177C10.2291 25.1274 9.93641 25.024 9.65144 24.9102L9.31635 25.7493Z" fill="black"/>
</g>
<defs>
<clipPath id="clip0_96_650">
<rect width="28" height="28" fill="white"/>
</clipPath>
</defs>
</svg>
