<svg width="28" height="28" viewBox="0 0 28 28" fill="none" xmlns="http://www.w3.org/2000/svg">
<g clip-path="url(#clip0_96_631)">
<path d="M22.3125 16.1875V9.1875H20.5625V16.1875H19.6875L21.4375 18.8125L23.1875 16.1875H22.3125Z" fill="#F76C5E"/>
<path d="M26.6875 1.3125H16.1875V9.1875H26.6875V1.3125Z" fill="#BC6C25"/>
<path d="M23.1875 1.3125V4.8125L21.4375 3.0625L19.6875 4.8125V1.3125" fill="#274C77"/>
<path d="M10.7538 17.955L9.44127 18.5194C8.99939 18.7075 8.50064 18.7075 8.06314 18.5194L6.75064 17.955C6.10752 17.6794 5.69189 17.045 5.69189 16.345V14C5.69189 12.5519 6.86877 11.375 8.31689 11.375H9.19189C10.64 11.375 11.8169 12.5519 11.8169 14V16.345C11.8169 17.045 11.4013 17.6794 10.7581 17.955H10.7538Z" fill="#DDA15E"/>
<path d="M14.4987 20.5625C13.7025 19.7531 12.5956 19.25 11.375 19.25H10.0625C10.0625 19.9762 9.47625 20.5625 8.75 20.5625C8.02375 20.5625 7.4375 19.9762 7.4375 19.25H6.125C3.71 19.25 1.75 21.21 1.75 23.625V26.6875H11.375L13.125 20.5625H14.4987Z" fill="#274C77"/>
<path d="M6.5625 24.9375H7.4375C7.91875 24.9375 8.3125 25.3312 8.3125 25.8125V26.6875H6.5625V24.9375Z" fill="#DDA15E"/>
<path d="M4.375 14.7569C4.24813 14.8312 4.095 14.875 3.9375 14.875C3.45625 14.875 3.0625 14.4813 3.0625 14C3.0625 13.5187 3.45625 13.125 3.9375 13.125C4.12125 13.125 4.29188 13.1819 4.43625 13.2825" fill="#274C77"/>
<path d="M13.125 14.7569C13.2518 14.8312 13.405 14.875 13.5625 14.875C14.0437 14.875 14.4375 14.4813 14.4375 14C14.4375 13.5187 14.0437 13.125 13.5625 13.125C13.3787 13.125 13.2081 13.1819 13.0637 13.2825" fill="#274C77"/>
<path d="M7.4375 18.248L8.05875 18.5149C8.50063 18.7074 8.99937 18.7074 9.44125 18.5149L10.0625 18.248V19.2499C10.0625 19.9762 9.47625 20.5624 8.75 20.5624C8.02375 20.5624 7.4375 19.9762 7.4375 19.2499V18.248Z" fill="#BC6C25"/>
<path d="M11.375 26.6875L13.125 20.5625H22.75L21 26.6875" fill="#8B8C89"/>
<path d="M11.5456 12.8537C11.2962 12.7531 11.0075 12.6875 10.6444 12.6875C8.75 12.6875 8.75 14.4375 6.85125 14.4375C6.35687 14.4375 5.98937 14.3194 5.6875 14.1444V14C5.6875 12.5519 6.86437 11.375 8.3125 11.375H9.1875C10.2244 11.375 11.1212 11.9787 11.5456 12.8537Z" fill="#274C77"/>
<path d="M11.8125 16.0125V14C11.8125 12.5519 10.6356 11.375 9.1875 11.375H8.3125C6.86438 11.375 5.6875 12.5519 5.6875 14V15.75H4.8125C4.57187 15.75 4.375 15.5531 4.375 15.3125V14C4.375 11.585 6.335 9.625 8.75 9.625C9.9575 9.625 11.0512 10.115 11.8431 10.9069C12.635 11.6988 13.125 12.7925 13.125 14V15.3913C13.125 15.6013 12.9763 15.7806 12.775 15.82L11.8125 16.0125Z" fill="#E7ECEF"/>
<path d="M17.0625 23.1875C17.3031 23.1875 17.5 23.3844 17.5 23.625C17.5 23.8656 17.3031 24.0625 17.0625 24.0625V23.1875Z" fill="#A3CEF1"/>
<path d="M22.75 20.1255H14.6694C13.7725 19.2811 12.6088 18.813 11.375 18.813H10.5V18.5373L10.9244 18.3536C11.7206 18.0123 12.2369 17.2336 12.25 16.3673L12.8625 16.2448C13.2694 16.1617 13.5669 15.803 13.5669 15.3873V15.3086C14.2888 15.3086 14.8794 14.718 14.8794 13.9961C14.8794 13.2742 14.2888 12.6836 13.5669 12.6836C13.5056 12.6836 13.4444 12.688 13.3831 12.6967C12.8144 10.6711 10.955 9.18359 8.75439 9.18359C6.55377 9.18359 4.69439 10.6755 4.12564 12.6967C4.06439 12.688 4.00314 12.6836 3.94189 12.6836C3.22002 12.6836 2.62939 13.2742 2.62939 13.9961C2.62939 14.718 3.22002 15.3086 3.94189 15.3086C3.94189 15.7898 4.33564 16.1836 4.81689 16.1836H5.25439V16.3411C5.25439 17.2161 5.77502 18.008 6.58002 18.3536L7.00439 18.5373V18.813H6.12939C3.47377 18.813 1.31689 20.9698 1.31689 23.6255V26.2505H0.879395V27.1255H22.75V26.2505H21.5819L23.1744 20.6811C23.2138 20.5498 23.1875 20.4055 23.1044 20.2961C23.0213 20.1867 22.8944 20.1211 22.7544 20.1211L22.75 20.1255ZM13.5625 13.563C13.8031 13.563 14 13.7598 14 14.0005C14 14.2411 13.8031 14.438 13.5625 14.438V14.0005C13.5625 13.8561 13.5538 13.7117 13.5406 13.5673C13.5494 13.5673 13.5538 13.5673 13.5625 13.5673V13.563ZM3.93752 14.0005V14.438C3.69689 14.438 3.50002 14.2411 3.50002 14.0005C3.50002 13.7598 3.69689 13.563 3.93752 13.563C3.94627 13.563 3.95064 13.563 3.95939 13.563C3.94627 13.7073 3.93752 13.8517 3.93752 13.9961V14.0005ZM5.25002 14.0005V15.313H4.81252V14.0005C4.81252 11.8305 6.58002 10.063 8.75002 10.063C10.92 10.063 12.6875 11.8305 12.6875 14.0005V15.3917L12.25 15.4792V14.0005C12.25 12.3117 10.8763 10.938 9.18752 10.938H8.31252C6.62377 10.938 5.25002 12.3117 5.25002 14.0005ZM10.4956 12.2592C9.47627 12.303 8.93377 12.7973 8.45252 13.2392C7.99314 13.6636 7.63002 14.0005 6.85127 14.0005C6.58002 14.0005 6.34814 13.9611 6.13814 13.878C6.20377 12.7317 7.14877 11.813 8.31252 11.813H9.18752C9.68189 11.813 10.1325 11.9836 10.4956 12.2592ZM6.92127 17.553C6.44002 17.3473 6.12502 16.8705 6.12502 16.3455V14.788C6.35252 14.8448 6.59314 14.8755 6.85127 14.8755C7.97127 14.8755 8.54439 14.3505 9.04752 13.8823C9.50689 13.458 9.87002 13.1255 10.6444 13.1255C10.8588 13.1255 11.0425 13.1605 11.2219 13.213C11.3181 13.458 11.375 13.7205 11.375 14.0005V15.6542L8.66252 16.1967L8.83314 17.0542L11.3575 16.5511C11.2875 16.993 10.9988 17.3736 10.5788 17.553L9.26627 18.1173C8.93814 18.2573 8.56189 18.2573 8.23377 18.1173L6.92127 17.553ZM9.62502 18.9136V19.2505C9.62502 19.7317 9.23127 20.1255 8.75002 20.1255C8.26877 20.1255 7.87502 19.7317 7.87502 19.2505V18.9136H7.88814C8.16377 19.0361 8.45689 19.0973 8.75002 19.0973C9.04314 19.0973 9.33627 19.0405 9.61189 18.9223H9.62502V18.9136ZM7.87502 26.2461H7.00002V25.3711H7.43752C7.67814 25.3711 7.87502 25.568 7.87502 25.8086V26.2461ZM8.75002 26.2461V25.8086C8.75002 25.0867 8.15939 24.4961 7.43752 24.4961H4.81252V23.363L5.56064 22.6148L4.94377 21.998L4.06877 22.873C3.98564 22.9561 3.94189 23.0655 3.94189 23.1836V24.9336C3.94189 25.1742 4.13877 25.3711 4.37939 25.3711H6.12939V26.2461H2.18752V23.6211C2.18752 21.4511 3.95502 19.6836 6.12502 19.6836H7.05689C7.25377 20.4361 7.93627 20.9961 8.75002 20.9961C9.56377 20.9961 10.2506 20.4361 10.4431 19.6836H11.375C12.0094 19.6836 12.6219 19.8367 13.1731 20.1211H13.125C12.9281 20.1211 12.7575 20.2523 12.705 20.4405L11.0469 26.2461H8.75002ZM20.6719 26.2461H11.9569L13.4575 20.9961H22.1725L20.6719 26.2461Z" fill="black"/>
<path d="M26.6875 0.875H16.1875C15.9469 0.875 15.75 1.07187 15.75 1.3125V9.1875C15.75 9.42812 15.9469 9.625 16.1875 9.625H21.875V16.1875C21.875 16.4281 22.0719 16.625 22.3125 16.625H22.3694L21.4375 18.025L20.5056 16.625H20.5625C20.8031 16.625 21 16.4281 21 16.1875V15.3125H20.125V15.75H19.6875C19.5256 15.75 19.3769 15.8375 19.3025 15.9819C19.2281 16.1262 19.2369 16.2969 19.3244 16.4325L21.0744 19.0575C21.1575 19.18 21.2931 19.2544 21.4375 19.2544C21.5819 19.2544 21.7219 19.18 21.8006 19.0575L23.5506 16.4325C23.6381 16.2969 23.6469 16.1262 23.5725 15.9819C23.4981 15.8375 23.3494 15.75 23.1875 15.75H22.75V9.625H26.6875C26.9281 9.625 27.125 9.42812 27.125 9.1875V1.3125C27.125 1.07187 26.9281 0.875 26.6875 0.875ZM20.125 1.75H22.75V3.75812L21.7481 2.75625C21.5775 2.58562 21.3019 2.58562 21.1312 2.75625L20.1294 3.75812V1.75H20.125ZM26.25 8.75H16.625V1.75H19.25V4.8125C19.25 4.9875 19.355 5.14937 19.5212 5.215C19.6831 5.285 19.8712 5.24562 19.9981 5.11875L21.4375 3.67937L22.8769 5.11875C22.96 5.20187 23.0738 5.24562 23.1875 5.24562C23.2444 5.24562 23.3013 5.23687 23.3538 5.21062C23.5156 5.145 23.625 4.98312 23.625 4.80812V1.75H26.25V8.75Z" fill="black"/>
<path d="M21 13.5625H20.125V14.4375H21V13.5625Z" fill="black"/>
<path d="M21 11.8125H20.125V12.6875H21V11.8125Z" fill="black"/>
<path d="M21 10.0625H20.125V10.9375H21V10.0625Z" fill="black"/>
</g>
<defs>
<clipPath id="clip0_96_631">
<rect width="28" height="28" fill="white"/>
</clipPath>
</defs>
</svg>
