<svg width="20" height="21" viewBox="0 0 20 21" fill="none" xmlns="http://www.w3.org/2000/svg">
<path d="M18.9 14.3363C17.5333 14.3363 16.2111 14.1136 14.9778 13.7129C14.5889 13.5793 14.1556 13.6795 13.8556 13.9801L12.1111 16.1732C8.96667 14.6703 6.02222 11.8314 4.45556 8.56944L6.62222 6.72137C6.92222 6.40965 7.01111 5.97546 6.88889 5.58581C6.47778 4.35005 6.26667 3.02523 6.26667 1.65587C6.26667 1.05469 5.76667 0.553711 5.16667 0.553711H1.32222C0.722222 0.553711 0 0.820902 0 1.65587C0 11.9984 8.58889 20.593 18.9 20.593C19.6889 20.593 20 19.8917 20 19.2793V15.4385C20 14.8373 19.5 14.3363 18.9 14.3363Z" fill="#514040"/>
</svg>
